<?xml version="1.0" encoding="UTF-8"?>
<svg width="24px" height="24px" viewBox="0 0 24 24" version="1.1" xmlns="http://www.w3.org/2000/svg" xmlns:xlink="http://www.w3.org/1999/xlink">
    <title>24*24</title>
    <g id="icon" stroke="none" stroke-width="1" fill="none" fill-rule="evenodd">
        <g id="编组">
            <path d="M8.68687405,11.5 L15.4776275,4.59375642 C15.7675388,4.29891461 15.7675359,3.82608825 15.477621,3.53125 C15.1939396,3.24275116 14.7300959,3.23884583 14.4415971,3.52252721 C14.4386632,3.52541212 14.4357536,3.52832169 14.4328688,3.53125562 L7.28700193,10.7986296 L7.28700193,10.7986296 C6.90433269,11.1878057 6.90433269,11.8121943 7.28700193,12.2013704 L14.4328688,19.4687444 C14.716547,19.7572463 15.1803907,19.7611566 15.4688926,19.4774783 C15.4718265,19.4745934 15.4747361,19.4716839 15.477621,19.46875 C15.7675359,19.1739118 15.7675388,18.7010854 15.4776275,18.4062436 L8.68687405,11.5 L8.68687405,11.5 Z" id="路径" fill-opacity="0.9" fill="#555555"></path>
            <rect id="矩形" x="0" y="0" width="24" height="24"></rect>
        </g>
    </g>
</svg>