<?xml version="1.0" encoding="UTF-8"?>
<svg width="62px" height="61px" viewBox="0 0 62 61" version="1.1" xmlns="http://www.w3.org/2000/svg" xmlns:xlink="http://www.w3.org/1999/xlink">
    <title>icon_64*64</title>
    <defs>
        <circle id="path-1" cx="32" cy="32" r="24"></circle>
        <filter x="-24.5%" y="-20.3%" width="149.0%" height="149.0%" filterUnits="objectBoundingBox" id="filter-2">
            <feMorphology radius="1.75" operator="dilate" in="SourceAlpha" result="shadowSpreadOuter1"></feMorphology>
            <feOffset dx="0" dy="2" in="shadowSpreadOuter1" result="shadowOffsetOuter1"></feOffset>
            <feGaussianBlur stdDeviation="2" in="shadowOffsetOuter1" result="shadowBlurOuter1"></feGaussianBlur>
            <feComposite in="shadowBlurOuter1" in2="SourceAlpha" operator="out" result="shadowBlurOuter1"></feComposite>
            <feColorMatrix values="0 0 0 0 0.92118946   0 0 0 0 0.9187205   0 0 0 0 0.9187205  0 0 0 0.5 0" type="matrix" in="shadowBlurOuter1"></feColorMatrix>
        </filter>
    </defs>
    <g id="icon" stroke="none" stroke-width="1" fill="none" fill-rule="evenodd">
        <g id="64*64" transform="translate(-1.000000, -3.000000)">
            <g id="椭圆形">
                <use fill="black" fill-opacity="1" filter="url(#filter-2)" xlink:href="#path-1"></use>
                <use stroke="#E9E9E9" stroke-width="0.5" fill="#FFFFFF" fill-rule="evenodd" xlink:href="#path-1"></use>
            </g>
            <g id="购物车" transform="translate(20.000000, 20.000000)" fill="#7D7A7A" fill-rule="nonzero">
                <path d="M7.5,21 C6.66935483,21 6,21.6693548 6,22.5 C6,23.3306452 6.66935483,24 7.5,24 C8.33064517,24 9,23.3306452 9,22.5 C9,21.6693548 8.33064517,21 7.5,21 L7.5,21 Z" id="路径"></path>
                <path d="M19.5,21 C18.6693548,21 18,21.6693548 18,22.5 C18,23.3306452 18.6693548,24 19.5,24 C20.3306452,24 21,23.3306452 21,22.5 C21,21.6693548 20.3266129,21 19.5,21 L19.5,21 Z" id="路径"></path>
                <path d="M21.1540211,20 L7.40913789,20 C6.19020052,20 5.11680793,19.0091143 4.97126318,17.7424632 L3.53400868,7.36153311 L2.71986768,2.50993224 C2.66983668,2.08459922 2.29232996,1.73872402 1.92846806,1.73872402 L0.845978924,1.73872402 C0.377506741,1.73872402 0,1.35078292 0,0.869362011 C0,0.387941102 0.377506714,0 0.845978924,0 L1.92391979,0 C3.15650197,0 4.24353938,0.990885708 4.39363242,2.25753679 L5.20777342,7.09044166 L6.64957619,17.5181117 C6.69505893,17.9200748 7.05437256,18.261276 7.40913789,18.261276 L21.1540211,18.261276 C21.6224933,18.261276 22,18.6492171 22,19.130638 C22,19.6120589 21.6224933,20 21.1540211,20 Z" id="路径"></path>
                <path d="M8.57355615,16 C8.12777945,16 7.75553294,15.6519987 7.72336351,15.191132 C7.68659842,14.7114545 8.0404624,14.2882096 8.5138129,14.2552906 L20.1131981,13.3805845 C20.5405923,13.3758818 20.8990519,13.0372858 20.9450082,12.64696 L22.2915296,4.76519987 C22.323699,4.47363117 22.2455732,4.14914345 22.0755347,3.95162916 C21.9652394,3.8246557 21.8273703,3.75881759 21.6665231,3.75881759 L6.8547883,3.75881759 C6.38143781,3.75881759 6,3.36849177 6,2.8841115 C6,2.39973123 6.38603341,2 6.8547883,2 L21.6573318,2 C22.3099121,2 22.9119404,2.27746054 23.3485258,2.78065165 C23.8494502,3.35908633 24.0746363,4.16795432 23.978128,5.01444408 L22.6316066,12.9009069 C22.4845463,14.1283171 21.4045718,15.1252939 20.1729414,15.1252939 L8.63789509,15.9952973 C8.61491688,15.9952973 8.59193868,16 8.57355615,16 Z" id="路径"></path>
            </g>
        </g>
    </g>
</svg>