<?xml version="1.0" encoding="UTF-8"?>
<svg width="24px" height="24px" viewBox="0 0 24 24" version="1.1" xmlns="http://www.w3.org/2000/svg" xmlns:xlink="http://www.w3.org/1999/xlink">
    <title>24*24</title>
    <g id="icon" stroke="none" stroke-width="1" fill="none" fill-rule="evenodd">
        <g id="24*24" fill="#FFC300">
            <path d="M7.23410021,19.5055818 L11.7114885,17.1516795 C11.8921094,17.0567214 12.1078906,17.0567214 12.2885115,17.1516795 L16.7658998,19.5055818 C17.0689834,19.6649223 17.4438523,19.5483955 17.6031928,19.2453118 C17.666643,19.1246223 17.6885381,18.9863821 17.6654884,18.8519924 L16.8103834,13.8663472 C16.7758879,13.6652229 16.8425679,13.4600028 16.9886933,13.3175658 L20.6109765,9.78671228 C20.8561763,9.54770153 20.8611936,9.1551713 20.6221828,8.90997148 C20.5270075,8.81233163 20.4022992,8.74878958 20.2673642,8.72918238 L15.2614919,8.00178656 C15.0595516,7.97244292 14.884981,7.84560991 14.7946705,7.66262095 L12.5559764,3.12653117 C12.4044345,2.8194739 12.0326665,2.69340372 11.7256093,2.84494554 C11.6033374,2.90529029 11.5043684,3.00425935 11.4440236,3.12653117 L9.20532949,7.66262095 C9.11501904,7.84560991 8.94044838,7.97244292 8.73850808,8.00178656 L3.73263579,8.72918238 C3.39377797,8.77842131 3.15899547,9.09303587 3.2082344,9.43189369 C3.22784159,9.56682865 3.29138364,9.69153694 3.3890235,9.78671228 L7.01130671,13.3175658 C7.15743209,13.4600028 7.22411215,13.6652229 7.18961663,13.8663472 L6.33451155,18.8519924 C6.27662773,19.189481 6.50329218,19.5099936 6.84078078,19.5678775 C6.97517051,19.5909271 7.11341072,19.569032 7.23410021,19.5055818 Z" id="星形-1"></path>
        </g>
    </g>
</svg>