<svg width="48" height="48" viewBox="0 0 48 48" fill="none" xmlns="http://www.w3.org/2000/svg">
<rect width="48" height="48" rx="24" fill="white"/>
<path d="M22.5 14.25H25.5V25.5C25.5 26.3284 24.8284 27 24 27V27C23.1716 27 22.5 26.3284 22.5 25.5V14.25Z" fill="#1A1A1A"/>
<path d="M12 15.25C12 14.0074 13.0074 13 14.25 13H20.9393C21.6185 13 22.2698 13.2698 22.75 13.75V13.75C23.2302 14.2302 23.5 14.8815 23.5 15.5607V26C23.5 26.2761 23.7239 26.5 24 26.5V26.5C24.2761 26.5 24.5 26.2761 24.5 26V15.5607C24.5 14.8815 24.7698 14.2302 25.25 13.75V13.75C25.7302 13.2698 26.3815 13 27.0607 13H33.75C34.9926 13 36 14.0074 36 15.25V31.75C36 32.9926 34.9926 34 33.75 34H27.181C27.0641 34 26.9508 34.041 26.8609 34.1159L25.2804 35.433C24.5387 36.0511 23.4613 36.0511 22.7196 35.433L21.1391 34.1159C21.0492 34.041 20.9359 34 20.819 34H14.25C13.0074 34 12 32.9926 12 31.75V15.25Z" fill="url(#paint0_linear_181_4526)" stroke="black" stroke-width="2.35"/>
<defs>
<linearGradient id="paint0_linear_181_4526" x1="24" y1="13" x2="24" y2="34" gradientUnits="userSpaceOnUse">
<stop stop-color="#FFC83C"/>
<stop offset="1" stop-color="#FEBD17"/>
</linearGradient>
</defs>
</svg>
