<?xml version="1.0" encoding="UTF-8"?>
<svg width="24px" height="24px" viewBox="0 0 24 24" version="1.1" xmlns="http://www.w3.org/2000/svg" xmlns:xlink="http://www.w3.org/1999/xlink">
    <title>24*24</title>
    <defs>
        <rect id="path-1" x="0" y="0" width="24" height="24"></rect>
    </defs>
    <g id="icon" stroke="none" stroke-width="1" fill="none" fill-rule="evenodd">
        <g id="消息">
            <mask id="mask-2" fill="white">
                <use xlink:href="#path-1"></use>
            </mask>
            <g id="路径"></g>
            <path d="M12,1.99999999 C16.34,1.99999999 19.87,5.52999999 19.87,9.86999999 L19.87,9.86999999 L19.87,14.53 C19.87,14.84 19.94,15.14 20.08,15.42 L20.08,15.42 L20.86,17 C21.19,17.68 20.92,18.51 20.25,18.85 C20.06,18.95 19.85,19 19.64,19 L19.64,19 L15,19 L15,19.18 C14.9,20.8 13.53,22.05 11.91,22 C10.29,21.95 9,20.62 9,19 L9,19 L4.36,19 C3.61,19 3,18.38 3,17.62 C3,17.4 3.05,17.19 3.14,17 L3.14,17 L3.92,15.42 C4.06,15.14 4.13,14.84 4.13,14.53 L4.13,14.53 L4.13,9.86999999 C4.13,5.52999999 7.66,1.99999999 12,1.99999999 Z M13,19 L11,19 L11.01,19.12 C11.07,19.64 11.53,20.03 12.06,20 C12.59,19.97 13,19.53 13,19 Z M12.002,4.00000001 C8.84199999,4.00000001 6.25199999,6.50000001 6.13199999,9.65000001 L6.13199999,14.53 C6.13199999,15.06 6.02199999,15.58 5.82199999,16.06 L5.71199999,16.3 L5.37199999,17 L18.632,17 L18.282,16.3 C18.052,15.83 17.912,15.32 17.882,14.79 L17.872,14.53 L17.872,9.87000001 C17.872,6.63000001 15.242,4.00000001 12.002,4.00000001 Z" id="分组-1" fill="#555555" mask="url(#mask-2)"></path>
        </g>
    </g>
</svg>