<?xml version="1.0" encoding="UTF-8"?>
<svg width="24px" height="24px" viewBox="0 0 24 24" version="1.1" xmlns="http://www.w3.org/2000/svg" xmlns:xlink="http://www.w3.org/1999/xlink">
    <title>24*24</title>
    <g id="icon" stroke="none" stroke-width="1" fill="none" fill-rule="evenodd">
        <g id="24*24" fill-rule="nonzero">
            <g id="收藏">
                <rect id="矩形" fill="#000000" opacity="0" x="0" y="0" width="24" height="24"></rect>
                <path d="M17.0778539,3 L5.92685494,3 C5.41672548,3 5,3.40780533 5,3.9070153 L5,20.0903244 C5,20.4114125 5.16764818,20.7020324 5.45025511,20.8684357 C5.73046707,21.0348391 6.07294836,21.0442139 6.36274021,20.8918728 L11.5023544,18.2270759 L16.6419687,20.8918728 C16.7784822,20.9621841 16.9269706,20.9996834 17.075459,20.9996834 C17.2407122,20.9996834 17.4059654,20.955153 17.5520588,20.8684357 C17.8322707,20.7020324 17.9999598,20.4114125 17.9999598,20.0903244 L17.9999598,3.9070153 C18.0047089,3.40780533 17.5879834,3 17.0778539,3 L17.0778539,3 Z M16.790457,19.6286138 L11.9358447,17.1091268 C11.6652127,16.9685043 11.3394962,16.9685043 11.0688641,17.1091268 L6.21425182,19.6286138 L6.21425182,4.18591664 L16.792852,4.18591664 L16.792852,19.6286138 L16.790457,19.6286138 Z" id="形状" fill="#505151"></path>
            </g>
        </g>
    </g>
</svg>