<svg width="24" height="24" viewBox="0 0 24 24" fill="none" xmlns="http://www.w3.org/2000/svg">
<mask id="path-1-inside-1_230_6059" fill="white">
<path fill-rule="evenodd" clip-rule="evenodd" d="M11.1877 4.64993L7 8.00005H3.5C3.22386 8.00005 3 8.22391 3 8.50005V15.5001C3 15.7762 3.22386 16.0001 3.5 16.0001H7L11.1877 19.3502C11.515 19.6121 12 19.379 12 18.9597V5.04037C12 4.62111 11.515 4.38803 11.1877 4.64993Z"/>
</mask>
<path d="M7 8.00005V9.50005H7.52617L7.93704 9.17136L7 8.00005ZM11.1877 4.64993L12.1247 5.82124L12.1247 5.82124L11.1877 4.64993ZM7 16.0001L7.93704 14.8288L7.52617 14.5001H7V16.0001ZM11.1877 19.3502L10.2506 20.5215L10.2506 20.5215L11.1877 19.3502ZM7.93704 9.17136L12.1247 5.82124L10.2506 3.47863L6.06296 6.82875L7.93704 9.17136ZM3.5 9.50005H7V6.50005H3.5V9.50005ZM4.5 8.50005C4.5 9.05234 4.05228 9.50005 3.5 9.50005V6.50005C2.39543 6.50005 1.5 7.39549 1.5 8.50005H4.5ZM4.5 15.5001V8.50005H1.5V15.5001H4.5ZM3.5 14.5001C4.05228 14.5001 4.5 14.9478 4.5 15.5001H1.5C1.5 16.6046 2.39543 17.5001 3.5 17.5001V14.5001ZM7 14.5001H3.5V17.5001H7V14.5001ZM12.1247 18.1789L7.93704 14.8288L6.06296 17.1714L10.2506 20.5215L12.1247 18.1789ZM10.5 18.9597C10.5 18.1212 11.4699 17.6551 12.1247 18.1789L10.2506 20.5215C11.5601 21.5691 13.5 20.6368 13.5 18.9597H10.5ZM10.5 5.04037V18.9597H13.5V5.04037H10.5ZM12.1247 5.82124C11.4699 6.34505 10.5 5.87887 10.5 5.04037H13.5C13.5 3.36335 11.5601 2.43101 10.2506 3.47863L12.1247 5.82124Z" fill="#424477" mask="url(#path-1-inside-1_230_6059)"/>
<path d="M17.5887 6.27523C17.7915 6.11881 18.0808 6.13992 18.2482 6.33368C19.6119 7.91217 20.3555 9.85844 20.3535 11.8661C20.3514 13.8737 19.6037 15.8188 18.2368 17.395C18.069 17.5885 17.7796 17.609 17.5772 17.4523L17.4387 17.345C17.2042 17.1634 17.1796 16.8193 17.3695 16.5914C18.5023 15.2315 19.1203 13.5741 19.1221 11.865C19.1238 10.156 18.5093 8.49763 17.3793 7.13584C17.1899 6.90754 17.215 6.56359 17.4499 6.38237L17.5887 6.27523Z" fill="#FA5151"/>
<path d="M15.1209 8.50545C15.3252 8.36603 15.6027 8.3956 15.7579 8.58812C16.5663 9.59035 17.0017 10.7829 16.9999 12.0077C16.9981 13.2326 16.559 14.4243 15.7476 15.4248C15.5918 15.6168 15.3143 15.6457 15.1104 15.5058L14.8513 15.3281C14.5991 15.155 14.5621 14.7989 14.7428 14.5521C15.2993 13.7923 15.5985 12.9106 15.5999 12.0062C15.6012 11.1018 15.3046 10.2195 14.7505 9.45848C14.5704 9.21124 14.6083 8.85523 14.861 8.68283L15.1209 8.50545Z" fill="#FA5151"/>
</svg>
