<?xml version="1.0" encoding="UTF-8"?>
<svg width="24px" height="24px" viewBox="0 0 24 24" version="1.1" xmlns="http://www.w3.org/2000/svg" xmlns:xlink="http://www.w3.org/1999/xlink">
    <title>24*24</title>
    <g id="icon" stroke="none" stroke-width="1" fill="none" fill-rule="evenodd">
        <g id="24*24" fill="#6469DB">
            <path d="M7.38988005,4.70163716 L7.14988005,4.84163716 L6.90988005,4.99163716 C5.20988005,6.05163716 5.93988005,10.3616372 8.69988005,14.3816372 C11.45988,18.4516372 15.27988,20.7716372 16.92988,19.7616372 C17.07988,19.7116372 17.45988,19.4716372 17.50988,19.4216372 C18.18988,19.0316372 18.61988,18.6416372 18.81988,18.1616372 C19.05988,17.4816372 18.86988,16.7616372 18.13988,15.8816372 C16.97988,14.4816372 16.10988,14.1916372 15.08988,14.6316372 C14.93988,14.6716372 14.79988,14.7716372 14.60988,14.8716372 C14.50988,14.9216372 14.21988,15.1616372 14.16988,15.1616372 C13.82988,15.4016372 12.80988,14.3816372 11.59988,12.5416372 C10.33988,10.8016372 9.85988005,9.49163716 10.14988,9.30163716 C10.14988,9.25163716 10.48988,9.06163716 10.58988,9.01163716 C11.84988,8.19163716 12.03988,7.31163716 11.06988,5.47163716 C10.63988,4.60163716 10.04988,4.12163716 9.41988005,4.02163716 C8.79988005,3.92163716 8.25988005,4.17163716 7.38988005,4.70163716 Z" id="路径"></path>
        </g>
    </g>
</svg>