<svg width="65" height="25" viewBox="0 0 65 25" fill="none" xmlns="http://www.w3.org/2000/svg">
<rect x="0.5" width="64" height="25" rx="12.5" fill="#6469DB"/>
<path d="M12.184 8.18H9.484V17.228H10.288V16.172H12.184V12.884L12.64 13.436C12.904 13.268 13.156 13.1 13.42 12.908V14.648C13.396 15.872 12.892 16.868 11.92 17.66L12.532 18.212C13.168 17.672 13.624 17.024 13.9 16.268H15.916V18.092H16.696V16.268H18.472V16.928C18.472 17.264 18.34 17.444 18.1 17.444C17.848 17.444 17.572 17.42 17.284 17.396L17.476 18.116H18.328C18.952 18.116 19.276 17.816 19.276 17.216V12.644H17.452C17.692 12.404 17.932 12.116 18.172 11.792V11.264H15.1C15.196 11.12 15.304 10.976 15.412 10.832L14.704 10.676C15.268 10.58 15.832 10.472 16.384 10.352V9.668C16.036 9.74 15.676 9.8 15.304 9.872V8.768H16.336V8.072H15.304V7.196H14.56V9.992C14.296 10.028 14.008 10.064 13.72 10.1V7.748H13.024V10.184C12.832 10.208 12.616 10.232 12.4 10.256L12.592 11C13.3 10.904 13.996 10.808 14.668 10.688C14.02 11.552 13.192 12.26 12.184 12.812V8.18ZM13.768 12.644C14.056 12.404 14.32 12.152 14.584 11.888H17.212C16.996 12.152 16.756 12.404 16.516 12.644H13.768ZM15.916 13.316V14.144H14.2V13.316H15.916ZM14.188 14.78H15.916V15.632H14.08C14.128 15.356 14.164 15.068 14.188 14.78ZM18.472 15.632H16.696V14.78H18.472V15.632ZM18.472 14.144H16.696V13.316H18.472V14.144ZM10.288 15.392V8.96H11.392V15.392H10.288ZM18.796 10.928C19.108 10.928 19.348 10.856 19.492 10.724C19.66 10.568 19.78 10.136 19.852 9.428L19.132 9.2C19.108 9.704 19.048 10.004 18.976 10.1C18.904 10.172 18.796 10.22 18.652 10.22H17.956C17.704 10.22 17.584 10.1 17.584 9.884V9.032C18.364 8.828 19.06 8.588 19.684 8.324L19.432 7.676C18.952 7.916 18.34 8.144 17.584 8.372V7.196H16.828V10.04C16.828 10.628 17.128 10.928 17.728 10.928H18.796ZM25.528 11.696V14.936H28.072V16.868C27.136 16.964 26.164 17.06 25.18 17.132L25.384 17.96C27.304 17.768 29.128 17.552 30.832 17.288C30.94 17.6 31.048 17.912 31.144 18.236L31.9 17.948C31.66 17.132 31.312 16.22 30.868 15.236L30.088 15.452C30.244 15.812 30.4 16.172 30.544 16.532C30.028 16.604 29.488 16.688 28.936 16.76V14.936H31.468V11.696H28.936V10.676H31.06V7.676H25.96V10.676H28.072V11.696H25.528ZM30.676 14.192H28.936V12.44H30.676V14.192ZM28.072 14.192H26.308V12.44H28.072V14.192ZM22.42 11.144H24.616V7.676H21.412V8.48H23.8V10.364H21.676L21.304 13.844H23.896C23.896 15.272 23.836 16.208 23.74 16.664C23.632 17.096 23.236 17.324 22.564 17.324C22.252 17.324 21.94 17.3 21.628 17.276L21.832 18.068C22.144 18.092 22.444 18.116 22.756 18.116C23.8 18.068 24.4 17.708 24.544 17.024C24.664 16.4 24.736 15.08 24.736 13.088H22.18L22.42 11.144ZM30.268 9.944H26.764V8.396H30.268V9.944ZM33.712 7.772V8.612H38.068V12.08H34.3V12.908H38.068V16.796H33.292V17.636H43.72V16.796H38.932V12.908H42.7V12.08H38.932V8.612H43.3V7.772H33.712ZM46.252 8.444V9.248H49.54V10.676H45.184V11.492H50.644C48.94 12.476 47.068 13.22 45.016 13.7L45.376 14.504C46.072 14.276 46.744 14.048 47.392 13.808V18.224H48.268V17.684H53.464V18.224H54.328V12.824H49.792C50.488 12.5 51.124 12.176 51.676 11.84C51.856 11.72 52.036 11.612 52.216 11.492H55.876V10.676H53.308C54.112 10.028 54.868 9.272 55.576 8.432L54.916 7.952C54.064 8.96 53.068 9.872 51.94 10.676H50.428V9.248H53.26V8.444H50.428V7.172H49.54V8.444H46.252ZM48.268 15.608H53.464V16.916H48.268V15.608ZM53.464 14.84H48.268V13.58H53.464V14.84Z" fill="white"/>
</svg>
