<svg width="32" height="32" viewBox="0 0 32 32" fill="none" xmlns="http://www.w3.org/2000/svg">
<g filter="url(#filter0_ii_420_3206)">
<path d="M4.33293 17.3242C4.72346 16.9336 5.35662 16.9336 5.74715 17.3242L15.6466 27.2237C16.0372 27.6142 16.0372 28.2474 15.6466 28.6379C15.2561 29.0284 14.623 29.0284 14.2324 28.6379L4.33293 18.7384C3.94241 18.3479 3.94241 17.7147 4.33293 17.3242Z" fill="#ECECEC"/>
</g>
<g filter="url(#filter1_i_420_3206)">
<path fill-rule="evenodd" clip-rule="evenodd" d="M14.1588 6.01426C14.0495 5.599 13.5021 5.50558 13.2613 5.86108L6.91728 15.226C6.64837 15.623 6.69905 16.1549 7.03809 16.494L16.4765 25.9324C16.8156 26.2715 17.3475 26.3221 17.7445 26.0532L27.1094 19.7092C27.4649 19.4684 27.3715 18.921 26.9562 18.8117L21.7404 17.4391C21.4922 17.3738 21.3337 17.1312 21.3737 16.8776L22.2567 11.2857C22.3096 10.9504 22.0202 10.6609 21.6848 10.7138L16.0929 11.5968C15.8393 11.6368 15.5967 11.4783 15.5314 11.2301L14.1588 6.01426ZM13.1715 19.799C13.7573 20.3848 14.5488 20.5431 14.9393 20.1525C15.3298 19.762 15.1715 18.9706 14.5857 18.3848C13.9999 17.799 13.2085 17.6407 12.818 18.0312C12.4274 18.4217 12.5857 19.2132 13.1715 19.799Z" fill="url(#paint0_radial_420_3206)"/>
</g>
<defs>
<filter id="filter0_ii_420_3206" x="4.04004" y="17.0312" width="11.8994" height="11.8995" filterUnits="userSpaceOnUse" color-interpolation-filters="sRGB">
<feFlood flood-opacity="0" result="BackgroundImageFix"/>
<feBlend mode="normal" in="SourceGraphic" in2="BackgroundImageFix" result="shape"/>
<feColorMatrix in="SourceAlpha" type="matrix" values="0 0 0 0 0 0 0 0 0 0 0 0 0 0 0 0 0 0 127 0" result="hardAlpha"/>
<feOffset/>
<feGaussianBlur stdDeviation="0.5"/>
<feComposite in2="hardAlpha" operator="arithmetic" k2="-1" k3="1"/>
<feColorMatrix type="matrix" values="0 0 0 0 0.866667 0 0 0 0 0.866667 0 0 0 0 0.866667 0 0 0 1 0"/>
<feBlend mode="normal" in2="shape" result="effect1_innerShadow_420_3206"/>
<feColorMatrix in="SourceAlpha" type="matrix" values="0 0 0 0 0 0 0 0 0 0 0 0 0 0 0 0 0 0 127 0" result="hardAlpha"/>
<feOffset/>
<feGaussianBlur stdDeviation="0.5"/>
<feComposite in2="hardAlpha" operator="arithmetic" k2="-1" k3="1"/>
<feColorMatrix type="matrix" values="0 0 0 0 0.866667 0 0 0 0 0.866667 0 0 0 0 0.866667 0 0 0 1 0"/>
<feBlend mode="normal" in2="effect1_innerShadow_420_3206" result="effect2_innerShadow_420_3206"/>
</filter>
<filter id="filter1_i_420_3206" x="6.74512" y="5.64136" width="20.584" height="20.584" filterUnits="userSpaceOnUse" color-interpolation-filters="sRGB">
<feFlood flood-opacity="0" result="BackgroundImageFix"/>
<feBlend mode="normal" in="SourceGraphic" in2="BackgroundImageFix" result="shape"/>
<feColorMatrix in="SourceAlpha" type="matrix" values="0 0 0 0 0 0 0 0 0 0 0 0 0 0 0 0 0 0 127 0" result="hardAlpha"/>
<feOffset/>
<feGaussianBlur stdDeviation="0.5"/>
<feComposite in2="hardAlpha" operator="arithmetic" k2="-1" k3="1"/>
<feColorMatrix type="matrix" values="0 0 0 0 0.866667 0 0 0 0 0.866667 0 0 0 0 0.866667 0 0 0 1 0"/>
<feBlend mode="normal" in2="shape" result="effect1_innerShadow_420_3206"/>
</filter>
<radialGradient id="paint0_radial_420_3206" cx="0" cy="0" r="1" gradientUnits="userSpaceOnUse" gradientTransform="translate(15.2928 14.8492) rotate(79.992) scale(12.2066 14.8222)">
<stop stop-color="#E0E0E0"/>
<stop offset="1" stop-color="#EAEAEA"/>
</radialGradient>
</defs>
</svg>
