<?xml version="1.0" encoding="UTF-8"?>
<svg width="24px" height="24px" viewBox="0 0 24 24" version="1.1" xmlns="http://www.w3.org/2000/svg" xmlns:xlink="http://www.w3.org/1999/xlink">
    <title>24*24</title>
    <g id="icon" stroke="none" stroke-width="1" fill="none" fill-rule="evenodd">
        <g id="24*24">
            <rect id="矩形" x="0" y="0" width="24" height="24"></rect>
            <g id="编组" transform="translate(-3.000000, -3.000000)" stroke="#3e3e3e" stroke-width="1.5">
                <circle id="椭圆形" cx="15.0262794" cy="15.0262794" r="4.25"></circle>
                <path d="M15.0262794,5.08568052 C15.2420916,5.08568052 15.4579038,5.14150327 15.6512794,5.25314876 L15.6512794,5.25314876 L23.1775589,9.59844823 C23.5643102,9.82173922 23.8025589,10.234398 23.8025589,10.68098 L23.8025589,10.68098 L23.8025589,19.3715789 C23.8025589,19.8181609 23.5643102,20.2308197 23.1775589,20.4541107 L23.1775589,20.4541107 L15.6512794,24.7994101 C15.2645281,25.0227011 14.7880308,25.0227011 14.4012794,24.7994101 L14.4012794,24.7994101 L6.875,20.4541107 C6.68162433,20.3424652 6.52537433,20.1834777 6.41746825,19.9965789 C6.30956216,19.8096801 6.25,19.5948699 6.25,19.3715789 L6.25,19.3715789 L6.25,10.68098 C6.25,10.234398 6.48824865,9.82173922 6.875,9.59844823 L6.875,9.59844823 L14.4012794,5.25314876 C14.5946551,5.14150327 14.8104673,5.08568052 15.0262794,5.08568052 Z" id="多边形" transform="translate(15.026279, 15.026279) rotate(-330.000000) translate(-15.026279, -15.026279) "></path>
            </g>
        </g>
    </g>
</svg>