<svg width="24" height="24" viewBox="0 0 24 24" fill="none" xmlns="http://www.w3.org/2000/svg">
<path fill-rule="evenodd" clip-rule="evenodd" d="M14.7737 16.1153C13.6472 16.9688 12.2441 17.4749 10.7231 17.4749C7.01001 17.4749 4 14.4585 4 10.7375C4 7.01646 7.01001 4 10.7231 4C14.4361 4 17.4461 7.01646 17.4461 10.7375C17.4461 12.2446 16.9523 13.6361 16.1181 14.7584C16.1405 14.7745 16.162 14.7925 16.1821 14.8127L19.8457 18.4842C20.0408 18.6797 20.0408 18.9966 19.8457 19.1921L19.1938 19.8454C18.9988 20.0409 18.6825 20.0409 18.4875 19.8454L14.8238 16.1739C14.8054 16.1554 14.7886 16.1358 14.7737 16.1153ZM15.5252 10.7375C15.5252 13.3953 13.3752 15.55 10.7231 15.55C8.07088 15.55 5.92087 13.3953 5.92087 10.7375C5.92087 8.07961 8.07088 5.92499 10.7231 5.92499C13.3752 5.92499 15.5252 8.07961 15.5252 10.7375Z" fill="#424477"/>
</svg>
