<?xml version="1.0" encoding="UTF-8"?>
<svg width="24px" height="24px" viewBox="0 0 24 24" version="1.1" xmlns="http://www.w3.org/2000/svg" xmlns:xlink="http://www.w3.org/1999/xlink">
    <title>24*24</title>
    <g id="icon" stroke="none" stroke-width="1" fill="none" fill-rule="evenodd">
        <g id="分组-1" fill="#6469DB" transform="translate(5.000000, 5.000000)">
            <path d="M12.82,9.28 C13.17,8.45 13.35,7.58 13.35,6.68 L12.44,6.68 C12.44,8.22 11.84,9.67 10.75,10.76 C9.66,11.85 8.21,12.45 6.67,12.45 C5.13,12.45 3.68,11.85 2.6,10.76 C1.5,9.67 0.91,8.22 0.91,6.68 C0.91,5.13 1.51,3.69 2.6,2.6 C3.69,1.5 5.13,0.91 6.68,0.91 L6.69,0.91 L6.69,0 L6.68,0 C5.77,0 4.9,0.18 4.08,0.53 C3.28,0.86 2.57,1.34 1.96,1.96 C1.34,2.57 0.86,3.28 0.53,4.08 C0.18,4.9 0,5.78 0,6.68 C0,7.58 0.18,8.45 0.52,9.27 C0.86,10.07 1.34,10.78 1.95,11.4 C2.57,12.01 3.28,12.49 4.08,12.83 C4.9,13.17 5.77,13.35 6.67,13.35 C7.58,13.35 8.45,13.17 9.27,12.83 C10.07,12.49 10.78,12.01 11.39,11.4 C12.01,10.78 12.49,10.07 12.82,9.28 Z" id="路径"></path>
            <path d="M13.3330303,0.0387878906 L9.1830303,0.0387878906 L9.1830303,0.948787891 L12.4330303,0.948787891 L12.4330303,4.17878789 L13.3330303,4.17878789 L13.3330303,0.0387878906 Z" id="路径"></path>
            <path d="M6.79232322,5.92686869 L7.43232322,6.56686869 L13.1923232,0.806868688 L12.5523232,0.166868688 L6.79232322,5.92686869 Z" id="路径"></path>
        </g>
    </g>
</svg>