<svg width="25" height="24" viewBox="0 0 25 24" fill="none" xmlns="http://www.w3.org/2000/svg">
<path fill-rule="evenodd" clip-rule="evenodd" d="M16.7213 8.88163C16.4938 8.85708 16.2675 8.83989 16.0375 8.83989C12.6762 8.83989 10.0213 11.3046 10.02 14.3414C10.02 14.8483 10.1013 15.3344 10.2388 15.7996C10.0213 15.8156 9.80125 15.8254 9.57875 15.8254C8.83906 15.8254 8.22109 15.7016 7.52034 15.5612L7.52021 15.5611L7.51997 15.5611L7.51948 15.561C7.38328 15.5337 7.24396 15.5058 7.1 15.478L4.625 16.6957L5.3325 14.6053C3.56 13.3876 2.5 11.8202 2.5 9.91147C2.5 6.60345 5.6875 4 9.57875 4C13.06 4 16.1088 6.08055 16.7213 8.88163ZM13.1188 7.82355C13.1188 7.30065 12.7675 6.95573 12.2325 6.95573C11.7025 6.95573 11.1713 7.29942 11.1713 7.82355C11.1713 8.344 11.7038 8.6926 12.2325 8.6926C12.7675 8.6926 13.1188 8.344 13.1188 7.82355ZM7.27875 8.6926C6.7475 8.6926 6.2125 8.344 6.2125 7.82355C6.2125 7.30065 6.7475 6.95573 7.27875 6.95573C7.81 6.95573 8.1625 7.29942 8.1625 7.82355C8.1625 8.344 7.81 8.6926 7.27875 8.6926ZM16.4862 9.21427C19.6675 9.21427 22.5 11.4789 22.5 14.2579C22.5 15.8254 21.44 17.2137 20.0187 18.2619L20.5513 20L18.61 18.9542C17.9025 19.1285 17.1912 19.3016 16.4862 19.3016C13.1187 19.3016 10.4662 17.0443 10.4662 14.2579C10.4662 11.4802 13.1175 9.21427 16.4862 9.21427ZM14.5338 13.3876C14.1825 13.3876 13.8263 13.044 13.8263 12.6929C13.8263 12.3468 14.1825 11.9982 14.5338 11.9982C15.0712 11.9982 15.42 12.3468 15.42 12.6929C15.42 13.044 15.0712 13.3876 14.5338 13.3876ZM17.7237 12.6929C17.7237 13.044 18.0787 13.3876 18.4275 13.3876C18.96 13.3876 19.3137 13.044 19.3137 12.6929C19.3137 12.3468 18.96 11.9982 18.4275 11.9982C18.0775 11.9982 17.7237 12.3468 17.7237 12.6929Z" fill="white"/>
</svg>
