<?xml version="1.0" encoding="UTF-8"?>
<svg width="24px" height="24px" viewBox="0 0 24 24" version="1.1" xmlns="http://www.w3.org/2000/svg" xmlns:xlink="http://www.w3.org/1999/xlink">
    <title>24*24</title>
    <g id="icon" stroke="none" stroke-width="1" fill="none" fill-rule="evenodd">
        <g id="24*24" fill="#FFFFFF" fill-rule="nonzero">
            <g id="微信" transform="translate(1.000000, 3.000000)">
                <path d="M14.9587514,5.24743646 C15.2128982,5.24743646 15.4629013,5.26606799 15.7142857,5.29268445 C15.0374816,2.25574557 11.6686548,0 7.82192142,0 C3.52214367,0 0,2.82267632 0,6.40924524 C0,8.47867555 1.17128543,10.178137 3.12987355,11.4983137 L2.34809578,13.7647059 L5.08293675,12.4445291 C6.06084958,12.6295136 6.84538982,12.8211521 7.82192142,12.8211521 C8.06778086,12.8211521 8.31087784,12.8105055 8.55121235,12.7932048 C8.39927674,12.2888228 8.3094966,11.7618167 8.3094966,11.2121867 C8.31087784,7.91972974 11.2446163,5.24743646 14.9587514,5.24743646 Z M10.5703283,3.17647059 C11.1459136,3.17647059 11.5238095,3.59700686 11.5238095,4.23454583 C11.5238095,4.86909166 11.1459136,5.29411765 10.5703283,5.29411765 C10.0014671,5.29411765 9.42857143,4.86909166 9.42857143,4.23454583 C9.42857143,3.59551029 10.0001223,3.17647059 10.5703283,3.17647059 Z M5.33614164,5.29411765 C4.76532357,5.29411765 4.19047619,4.86909166 4.19047619,4.23454583 C4.19047619,3.59700686 4.76532357,3.17647059 5.33614164,3.17647059 C5.90695971,3.17647059 6.28571429,3.59551029 6.28571429,4.23454583 C6.28571429,4.86909166 5.90695971,5.29411765 5.33614164,5.29411765 Z M22,11.7993694 C22,8.79846565 18.7943532,6.35294118 15.1940129,6.35294118 C11.3814718,6.35294118 8.38095238,8.79979114 8.38095238,11.7993694 C8.38095238,14.8082261 11.3828864,17.2457976 15.1940129,17.2457976 C15.9918879,17.2457976 16.7968363,17.0589039 17.5975406,16.8706846 L19.7945263,18 L19.191876,16.1231097 C20.8003581,14.9911433 22,13.492017 22,11.7993694 Z M13.50155,10.5882353 C13.0397759,10.5882353 12.5714286,10.3263355 12.5714286,10.0588235 C12.5714286,9.795053 13.0397759,9.52941176 13.50155,9.52941176 C14.2081793,9.52941176 14.6666667,9.795053 14.6666667,10.0588235 C14.6666667,10.3263355 14.2081793,10.5882353 13.50155,10.5882353 Z M17.6892782,10.5882353 C17.2297095,10.5882353 16.7619048,10.3263355 16.7619048,10.0588235 C16.7619048,9.795053 17.2280623,9.52941176 17.6892782,9.52941176 C18.3909853,9.52941176 18.8571429,9.795053 18.8571429,10.0588235 C18.8571429,10.3263355 18.3909853,10.5882353 17.6892782,10.5882353 Z" id="形状"></path>
            </g>
        </g>
    </g>
</svg>