<?xml version="1.0" encoding="UTF-8"?>
<svg width="24px" height="24px" viewBox="0 0 24 24" version="1.1" xmlns="http://www.w3.org/2000/svg" xmlns:xlink="http://www.w3.org/1999/xlink">
    <title>24*24</title>
    <defs>
        <rect id="path-1" x="0" y="0" width="16" height="16"></rect>
    </defs>
    <g id="icon" stroke="none" stroke-width="1" fill="none" fill-rule="evenodd">
        <g id="定位" transform="translate(4.000000, 4.000000)">
            <mask id="mask-2" fill="white">
                <use xlink:href="#path-1"></use>
            </mask>
            <g id="路径"></g>
            <path d="M8.00154716,0 C11.3515472,0 14.0715472,2.72 14.0715472,6.07 C14.0715472,6.99 13.7915472,8.02 13.2815472,9.12 C12.7815472,10.21 12.0715472,11.36 11.2015472,12.54 C10.5915472,13.37 9.93154716,14.16 9.27154716,14.89 C9.04154716,15.15 8.83154716,15.38 8.63154716,15.58 C8.57154716,15.65 8.51154716,15.72 8.45154716,15.77 C8.42154716,15.8 8.40154716,15.83 8.39154716,15.84 C8.17154716,16.06 7.81154716,16.05 7.60154716,15.83 C7.59154716,15.82 7.57154716,15.79 7.53154716,15.76 C7.48154716,15.7 7.42154716,15.64 7.35154716,15.56 C7.16154716,15.35 6.95154716,15.11 6.72154716,14.85 C6.06154716,14.09 5.41154716,13.27 4.79154716,12.43 C4.09154716,11.46 3.48154716,10.51 3.01154716,9.61 C2.31154716,8.28 1.93154716,7.09 1.93154716,6.07 C1.93154716,2.72 4.65154716,0 8.00154716,0 Z M8.00490222,1.10335506 C5.25490222,1.10335506 3.03490222,3.32335506 3.03490222,6.07335506 C3.03490222,6.88335506 3.36490222,7.91335506 3.98490222,9.10335506 C4.43490222,9.94335506 5.00490222,10.8533551 5.68490222,11.7833551 C6.28490222,12.5933551 6.91490222,13.3933551 7.55490222,14.1233551 C7.71490222,14.3133551 7.86490222,14.4833551 8.00490222,14.6433551 C8.14490222,14.4933551 8.29490222,14.3333551 8.45490222,14.1533551 C9.08490222,13.4533551 9.72490222,12.6833551 10.3149022,11.8833551 C11.1449022,10.7633551 11.8149022,9.67335506 12.2849022,8.66335506 C12.7249022,7.69335506 12.9649022,6.81335506 12.9649022,6.07335506 C12.9649022,3.32335506 10.7449022,1.10335506 8.00490222,1.10335506 Z M7.99745111,3.58590395 C9.36745111,3.58590395 10.4874511,4.69590395 10.4874511,6.06590395 C10.4874511,7.43590395 9.36745111,8.55590395 7.99745111,8.55590395 C6.62745111,8.55590395 5.51745111,7.43590395 5.51745111,6.06590395 C5.51745111,4.69590395 6.62745111,3.58590395 7.99745111,3.58590395 Z M8.00080617,4.68925902 C7.24080617,4.68925902 6.62080617,5.30925902 6.62080617,6.06925902 C6.62080617,6.82925902 7.24080617,7.44925902 8.00080617,7.44925902 C8.76080617,7.44925902 9.38080617,6.82925902 9.38080617,6.06925902 C9.38080617,5.30925902 8.76080617,4.68925902 8.00080617,4.68925902 Z" id="分组-1" fill="#161616" mask="url(#mask-2)"></path>
        </g>
    </g>
</svg>