<?xml version="1.0" encoding="UTF-8"?>
<svg width="24px" height="24px" viewBox="0 0 24 24" version="1.1" xmlns="http://www.w3.org/2000/svg" xmlns:xlink="http://www.w3.org/1999/xlink">
    <title>24*24</title>
    <g id="icon" stroke="none" stroke-width="1" fill="none" fill-rule="evenodd">
        <g id="24*24" fill="#383838">
            <path d="M12,5 C15.87,5 19,8.13 19,12 C19,15.87 15.87,19 12,19 C8.13,19 5,15.87 5,12 C5,8.13 8.13,5 12,5 Z M12.005,6.125 C8.755,6.125 6.125,8.755 6.125,12.005 C6.125,15.245 8.755,17.875 12.005,17.875 C15.245,17.875 17.875,15.245 17.875,12.005 C17.875,8.755 15.245,6.125 12.005,6.125 Z M12.37,8 C12.44,8 12.5,8.06 12.5,8.12 L12.5,8.12 L12.5,11.5 L14.28,13.28 C14.31,13.31 14.32,13.34 14.32,13.37 C14.32,13.4 14.31,13.43 14.28,13.46 L14.28,13.46 L13.71,14.03 C13.66,14.08 13.58,14.08 13.53,14.03 L13.53,14.03 L11.5,12 L11.5,8.12 C11.5,8.06 11.56,8 11.62,8 L11.62,8 Z" id="分组-1"></path>
        </g>
    </g>
</svg>