<?xml version="1.0" encoding="UTF-8"?>
<svg width="17px" height="20px" viewBox="0 0 17 20" version="1.1" xmlns="http://www.w3.org/2000/svg" xmlns:xlink="http://www.w3.org/1999/xlink">
    <title>116订单、订单明细、收支明细</title>
    <defs>
        <linearGradient x1="16.5314165%" y1="0%" x2="83.4685835%" y2="100%" id="linearGradient-1">
            <stop stop-color="#9AA0F8" offset="0%"></stop>
            <stop stop-color="#6469DB" offset="100%"></stop>
        </linearGradient>
    </defs>
    <g id="控件" stroke="none" stroke-width="1" fill="none" fill-rule="evenodd">
        <g id="Tab菜单" transform="translate(-226.000000, -9.000000)" fill="url(#linearGradient-1)" fill-rule="nonzero">
            <g id="116订单、订单明细、收支明细" transform="translate(226.000000, 9.000000)">
                <path d="M15.0011163,2.03057536e-16 L1.36191114,2.03057536e-16 C0.618441616,2.03057536e-16 0.0156284885,0.593882563 0,1.33511945 L0.093770931,1.33511945 C0.062513954,1.33511945 0.0334896182,1.33735209 0,1.33958473 L0,18.6358562 C0,19.3882563 0.611743693,20 1.36414378,20 L15.0011163,20 C15.7512838,20 16.3630275,19.3882563 16.3630275,18.6358562 L16.3630275,1.33735209 C16.347399,0.593882563 15.7423532,2.03057536e-16 15.0011163,2.03057536e-16 Z M8.58450547,14.7778522 C8.58450547,15.1707971 8.26300514,15.4922974 7.87006028,15.4922974 L4.61040411,15.4922974 C4.21745925,15.4922974 3.89595892,15.1707971 3.89595892,14.7778522 C3.89595892,14.3849073 4.21745925,14.063407 4.61040411,14.063407 L7.87006028,14.063407 C8.26300514,14.063407 8.58450547,14.3849073 8.58450547,14.7778522 Z M10.5938826,10 C10.5938826,10.3929449 10.2723822,10.7144452 9.87943737,10.7144452 L4.61040411,10.7144452 C4.21745925,10.7144452 3.89595892,10.3929449 3.89595892,10 C3.89595892,9.60705515 4.21745925,9.28555481 4.61040411,9.28555481 L9.87943737,9.28555481 C10.2723822,9.28555481 10.5938826,9.60705515 10.5938826,10 Z M12.4693012,5.2221478 C12.4693012,5.61509265 12.1478008,5.93659299 11.754856,5.93659299 L4.61040411,5.93659299 C4.21745925,5.93659299 3.89595892,5.61509265 3.89595892,5.2221478 C3.89595892,4.82920295 4.21745925,4.50770261 4.61040411,4.50770261 L11.754856,4.50770261 C12.1478008,4.50770261 12.4693012,4.82920295 12.4693012,5.2221478 Z" id="形状"></path>
            </g>
        </g>
    </g>
</svg>