<svg width="33" height="32" viewBox="0 0 33 32" fill="none" xmlns="http://www.w3.org/2000/svg">
<g clip-path="url(#clip0_230_6084)">
<circle cx="16.125" cy="16" r="16" fill="#EDFAF0"/>
<path d="M21.1684 24.5216H11.7476C9.92784 24.5216 8.45264 23.0464 8.45264 21.2267V10.7733C8.45264 8.95359 9.92784 7.47839 11.7476 7.47839H21.1684C22.9881 7.47839 24.4633 8.95359 24.4633 10.7733V21.2267C24.4633 23.0464 22.9881 24.5216 21.1684 24.5216Z" fill="#7CE06D"/>
<path d="M16.8623 15.0432L15.0479 13.2331C14.8207 13.0059 14.4911 13.0059 14.2628 13.2331L12.4484 15.0432C12.0474 15.4443 11.4404 15.0987 11.4404 14.4704V7.47839H17.8714V14.4704C17.8703 15.0987 17.2644 15.4443 16.8623 15.0432Z" fill="#C8FFC0"/>
</g>
<defs>
<clipPath id="clip0_230_6084">
<rect width="32" height="32" fill="white" transform="translate(0.125)"/>
</clipPath>
</defs>
</svg>
