<svg width="33" height="32" viewBox="0 0 33 32" fill="none" xmlns="http://www.w3.org/2000/svg">
<g clip-path="url(#clip0_230_6080)">
<circle cx="16.375" cy="16" r="16" fill="#EEF5FF"/>
<g clip-path="url(#clip1_230_6080)">
<path d="M16.4218 7.21497C13.8284 7.21497 11.7261 9.31732 11.7261 11.9107C11.7261 14.5041 14.1977 17.6994 16.4218 19.1397C18.981 16.8417 21.1176 14.5028 21.1176 11.9107C21.1176 9.31869 19.0152 7.21497 16.4218 7.21497V7.21497ZM16.4218 14.1458C15.1456 14.1458 14.1116 13.1117 14.1116 11.8355C14.1116 10.5593 15.1456 9.52523 16.4218 9.52523C17.698 9.52523 18.7321 10.5593 18.7321 11.8355C18.7321 13.1117 17.698 14.1458 16.4218 14.1458V14.1458Z" fill="#39ACFF"/>
<path d="M24.8874 21.4267L23.67 16.4259C23.6177 16.2114 23.4949 16.0207 23.3213 15.8843C23.1477 15.7479 22.9333 15.6737 22.7125 15.6736H20.7771C20.2819 16.3575 19.8469 16.8841 19.5187 17.2589C20.1588 17.5844 20.5473 18.0098 20.5473 18.4749C20.5473 19.4994 18.6692 20.3297 16.3535 20.3297C14.0378 20.3297 12.1597 19.4994 12.1597 18.4749C12.1597 18.029 12.5154 17.62 13.109 17.2999C12.7452 16.7774 12.3294 16.1427 12.0257 15.6736H10.0806C9.86024 15.6736 9.64618 15.7474 9.47263 15.8832C9.29908 16.0191 9.17604 16.2092 9.12316 16.4232L7.88801 21.4239C7.73481 22.0463 8.20535 22.6468 8.84549 22.6468H23.9285C24.5673 22.6468 25.0378 22.0477 24.8874 21.4267V21.4267Z" fill="#39ACFF"/>
</g>
</g>
<defs>
<clipPath id="clip0_230_6080">
<rect width="32" height="32" fill="white" transform="translate(0.375)"/>
</clipPath>
<clipPath id="clip1_230_6080">
<rect width="21.3333" height="21.3333" fill="white" transform="translate(5.7085 5.33337)"/>
</clipPath>
</defs>
</svg>
