<svg width="33" height="32" viewBox="0 0 33 32" fill="none" xmlns="http://www.w3.org/2000/svg">
<g clip-path="url(#clip0_230_6076)">
<circle cx="16.625" cy="16" r="16" fill="#FDFAE7"/>
<g clip-path="url(#clip1_230_6076)">
<path d="M15.4346 19.3524H18.4822V24.2286H15.4346V19.3524Z" fill="#FAD652"/>
<path d="M13.9105 22.4H20.0058C21.0218 22.4 21.5296 22.9071 21.5296 23.9214V23.9263C21.5296 24.9405 21.0218 25.4476 20.0058 25.4476H13.9105C12.8945 25.4476 12.3867 24.9405 12.3867 23.9263V23.9214C12.3867 22.9071 12.8945 22.4 13.9105 22.4V22.4Z" fill="#FAD652"/>
<path d="M23.0534 8.99048H26.101C26.9422 8.99048 27.6248 9.6445 27.6248 10.4509V13.3833C27.6248 14.9967 26.2601 16.3048 24.5772 16.3048H23.0534V8.99048ZM7.81531 8.99048H10.8629V16.3048H9.33912C7.65562 16.3048 6.2915 14.9967 6.2915 13.3833V10.4515C6.2915 9.6445 6.97417 8.99048 7.81531 8.99048V8.99048Z" fill="#FAD652"/>
<path d="M12.5089 5.94287H22.0175C23.768 5.94287 25.187 7.25091 25.187 8.86432V13.2681C25.187 17.302 21.6395 20.5714 17.2632 20.5714C12.8868 20.5714 9.33936 17.302 9.33936 13.2681V8.86432C9.33936 7.25091 10.7583 5.94287 12.5089 5.94287Z" fill="#FAD652"/>
<path d="M18.0566 9.36535L18.0585 9.36657C18.2002 9.5086 18.2798 9.70107 18.2798 9.90173C18.2798 10.1024 18.2002 10.2949 18.0585 10.4369L15.9154 12.5842C15.8452 12.6547 15.7617 12.7107 15.6698 12.7488C15.5779 12.787 15.4794 12.8066 15.3799 12.8066C15.2804 12.8066 15.1819 12.787 15.09 12.7488C14.9981 12.7107 14.9147 12.6547 14.8444 12.5842L14.8432 12.583C14.7013 12.441 14.6216 12.2484 14.6216 12.0476C14.6216 11.8467 14.7013 11.6542 14.8432 11.5121L16.9857 9.36535C17.0559 9.29485 17.1394 9.23892 17.2313 9.20076C17.3231 9.16259 17.4217 9.14294 17.5212 9.14294C17.6207 9.14294 17.7192 9.16259 17.8111 9.20076C17.903 9.23892 17.9864 9.29485 18.0566 9.36535V9.36535ZM20.6422 12.4002L20.6435 12.4014C20.7852 12.5434 20.8648 12.7359 20.8648 12.9365C20.8648 13.1372 20.7852 13.3297 20.6435 13.4717L17.4294 16.6918C17.3592 16.7623 17.2758 16.8182 17.1839 16.8564C17.092 16.8946 16.9935 16.9142 16.894 16.9142C16.7945 16.9142 16.6959 16.8946 16.6041 16.8564C16.5122 16.8182 16.4287 16.7623 16.3585 16.6918L16.3573 16.6906C16.2155 16.5486 16.1359 16.3561 16.1359 16.1554C16.1359 15.9548 16.2155 15.7623 16.3573 15.6203L19.5713 12.4002C19.6415 12.3297 19.725 12.2737 19.8169 12.2356C19.9087 12.1974 20.0073 12.1778 20.1068 12.1778C20.2063 12.1778 20.3048 12.1974 20.3967 12.2356C20.4886 12.2737 20.572 12.3297 20.6422 12.4002V12.4002Z" fill="white"/>
</g>
</g>
<defs>
<clipPath id="clip0_230_6076">
<rect width="32" height="32" fill="white" transform="translate(0.625)"/>
</clipPath>
<clipPath id="clip1_230_6076">
<rect width="21.3333" height="21.3333" fill="white" transform="translate(6.2915 5.33337)"/>
</clipPath>
</defs>
</svg>
