<svg width="33" height="32" viewBox="0 0 33 32" fill="none" xmlns="http://www.w3.org/2000/svg">
<g clip-path="url(#clip0_230_6072)">
<circle cx="16.875" cy="16" r="16" fill="#ECFBF8"/>
<path d="M9.05159 7.89642C9.09007 7.12459 9.72708 6.51855 10.4999 6.51855H23.2495C24.0223 6.51855 24.6593 7.12459 24.6977 7.89643L25.4654 23.2925C25.5067 24.1207 24.8464 24.8148 24.0171 24.8148H9.7322C8.90298 24.8148 8.24262 24.1207 8.28391 23.2925L9.05159 7.89642Z" fill="#4CE0BE"/>
<path d="M21.6897 11.3334C21.6897 12.6103 21.1824 13.835 20.2795 14.738C19.3765 15.6409 18.1518 16.1482 16.8749 16.1482C15.5979 16.1482 14.3732 15.6409 13.4703 14.738C12.5673 13.835 12.0601 12.6103 12.0601 11.3334L13.5045 11.3334C13.5045 12.2272 13.8596 13.0845 14.4917 13.7166C15.1237 14.3486 15.981 14.7037 16.8749 14.7037C17.7687 14.7037 18.626 14.3486 19.2581 13.7166C19.8901 13.0845 20.2452 12.2272 20.2452 11.3334H21.6897Z" fill="white"/>
</g>
<defs>
<clipPath id="clip0_230_6072">
<path d="M0.875 0H32.875V32H0.875V0Z" fill="white"/>
</clipPath>
</defs>
</svg>
