<svg width="48" height="48" viewBox="0 0 48 48" fill="none" xmlns="http://www.w3.org/2000/svg">
<circle cx="24" cy="24" r="24" fill="white"/>
<path d="M48 24.0249C48 37.2649 37.2541 48 23.9975 48C10.7421 48 0 37.2648 0 24.0249C0 13.8621 6.32605 5.17953 15.2602 1.69022C17.9596 0.601337 20.9087 0 23.9981 0C27.0913 0 30.0379 0.600729 32.7398 1.69022C41.6734 5.17953 48 13.8621 48 24.0249ZM14.7733 18.9686C14.7733 23.0089 16.8436 26.507 19.8531 28.2193C21.1012 28.9295 22.5065 29.339 23.9975 29.339C25.4361 29.339 26.7925 28.9559 28.0079 28.2941C31.0885 26.6146 33.2255 23.0737 33.2255 18.9693C33.2255 13.2544 29.0868 8.60272 23.9975 8.60272C18.9114 8.60211 14.7733 13.2539 14.7733 18.9686ZM24.095 46.4463C31.1067 46.4463 37.3616 43.2219 41.4613 38.1758C40.977 34.1952 37.098 30.8066 31.6081 29.1163C29.5347 30.9814 26.8856 32.1037 23.9968 32.1037C21.0439 32.1037 18.3408 30.9211 16.2472 28.9748C10.9069 30.4989 6.99532 33.6077 6.07818 37.3328C10.1464 42.8589 16.7033 46.4463 24.095 46.4463Z" fill="#E3E6FF"/>
</svg>
