<svg width="24" height="24" viewBox="0 0 24 24" fill="none" xmlns="http://www.w3.org/2000/svg">
<circle cx="8" cy="11" r="1" fill="black"/>
<circle cx="12" cy="11" r="1" fill="black"/>
<circle cx="16" cy="11" r="1" fill="black"/>
<mask id="path-4-outside-1_45_13758" maskUnits="userSpaceOnUse" x="2" y="2" width="20" height="21" fill="black">
<rect fill="white" x="2" y="2" width="20" height="21"/>
<path fill-rule="evenodd" clip-rule="evenodd" d="M12 18C16.4183 18 20 14.866 20 11C20 7.13401 16.4183 4 12 4C7.58172 4 4 7.13401 4 11C4 12.2086 4.35003 13.3456 4.96623 14.3377L4.5 19L8.41556 17.2598C9.4938 17.7334 10.7113 18 12 18Z"/>
</mask>
<path fill-rule="evenodd" clip-rule="evenodd" d="M12 18C16.4183 18 20 14.866 20 11C20 7.13401 16.4183 4 12 4C7.58172 4 4 7.13401 4 11C4 12.2086 4.35003 13.3456 4.96623 14.3377L4.5 19L8.41556 17.2598C9.4938 17.7334 10.7113 18 12 18Z" fill="#6469DB"/>
<path d="M4.96623 14.3377L6.9563 14.5367L7.02396 13.8601L6.6652 13.2825L4.96623 14.3377ZM4.5 19L2.50993 18.801L2.16749 22.2253L5.31228 20.8276L4.5 19ZM8.41556 17.2598L9.21991 15.4286L8.41083 15.0732L7.60328 15.4321L8.41556 17.2598ZM18 11C18 13.5189 15.5729 16 12 16V20C17.2636 20 22 16.2131 22 11H18ZM12 6C15.5729 6 18 8.48108 18 11H22C22 5.78693 17.2636 2 12 2V6ZM6 11C6 8.48108 8.42708 6 12 6V2C6.73636 2 2 5.78693 2 11H6ZM6.6652 13.2825C6.23361 12.5876 6 11.8132 6 11H2C2 12.6039 2.46646 14.1036 3.26726 15.3929L6.6652 13.2825ZM2.97616 14.1387L2.50993 18.801L6.49007 19.199L6.9563 14.5367L2.97616 14.1387ZM5.31228 20.8276L9.22784 19.0874L7.60328 15.4321L3.68772 17.1724L5.31228 20.8276ZM12 16C10.9875 16 10.044 15.7906 9.21991 15.4286L7.61121 19.0909C8.94363 19.6762 10.4351 20 12 20V16Z" fill="#424477" mask="url(#path-4-outside-1_45_13758)"/>
<circle cx="8" cy="11" r="1" fill="white"/>
<circle cx="12" cy="11" r="1" fill="white"/>
<circle cx="16" cy="11" r="1" fill="white"/>
</svg>
