<svg width="24" height="24" viewBox="0 0 24 24" fill="none" xmlns="http://www.w3.org/2000/svg">
<path d="M2.59153 18.5356C2.82113 14.8619 5.86752 12 9.5483 12H14.4517C18.1325 12 21.1789 14.8619 21.4085 18.5356L21.4338 18.9415C21.4765 19.6247 21.2744 20.3008 20.8637 20.8484V20.8484C20.32 21.5734 19.4667 22 18.5605 22H5.43945C4.5333 22 3.68002 21.5734 3.13633 20.8484V20.8484C2.7256 20.3008 2.52345 19.6247 2.56616 18.9415L2.59153 18.5356Z" fill="white"/>
<path d="M21.4338 18.9415L20.4358 19.0039L21.4338 18.9415ZM21.4085 18.5356L20.4104 18.5979L21.4085 18.5356ZM9.54831 13H14.4517V11H9.54831V13ZM20.4104 18.5979L20.4358 19.0039L22.4319 18.8791L22.4065 18.4732L20.4104 18.5979ZM3.56421 19.0039L3.58958 18.5979L1.59348 18.4732L1.5681 18.8791L3.56421 19.0039ZM18.5605 21H5.43945V23H18.5605V21ZM20.0637 20.2484C19.7088 20.7216 19.1519 21 18.5605 21V23C19.7815 23 20.9311 22.4252 21.6637 21.4484L20.0637 20.2484ZM2.33633 21.4484C3.06888 22.4252 4.21854 23 5.43945 23V21C4.84805 21 4.29117 20.7216 3.93633 20.2484L2.33633 21.4484ZM1.5681 18.8791C1.51057 19.7997 1.78293 20.7106 2.33633 21.4484L3.93633 20.2484C3.66827 19.891 3.53634 19.4498 3.56421 19.0039L1.5681 18.8791ZM20.4358 19.0039C20.4637 19.4498 20.3317 19.891 20.0637 20.2484L21.6637 21.4484C22.2171 20.7106 22.4894 19.7997 22.4319 18.8791L20.4358 19.0039ZM14.4517 13C17.6044 13 20.2138 15.4513 20.4104 18.5979L22.4065 18.4732C22.144 14.2725 18.6605 11 14.4517 11V13ZM9.54831 11C5.33946 11 1.85602 14.2725 1.59348 18.4732L3.58958 18.5979C3.78624 15.4513 6.39558 13 9.54831 13V11Z" fill="#424477"/>
<circle cx="12" cy="8" r="5" fill="white" stroke="#424477" stroke-width="2"/>
</svg>
