<svg width="24" height="24" viewBox="0 0 24 24" fill="none" xmlns="http://www.w3.org/2000/svg">
<path d="M11.47 3.33125L4.47 7.70625C4.17762 7.88899 4 8.20946 4 8.55425V19C4 20.1046 4.89543 21 6 21H8C8.55228 21 9 20.5523 9 20V17C9 16.4477 9.44772 16 10 16H14C14.5523 16 15 16.4477 15 17V20C15 20.5523 15.4477 21 16 21H18C19.1046 21 20 20.1046 20 19V8.55425C20 8.20946 19.8224 7.88899 19.53 7.70625L12.53 3.33125C12.2057 3.12858 11.7943 3.12858 11.47 3.33125Z" fill="#6469DB" stroke="#424477" stroke-width="2"/>
<path d="M9.75 9H11.75V11H9.75V9Z" fill="white"/>
<path d="M9.75 11.5H11.75V13.5H9.75V11.5Z" fill="white"/>
<path d="M12.25 9H14.25V11H12.25V9Z" fill="white"/>
<path d="M12.25 11.5H14.25V13.5H12.25V11.5Z" fill="white"/>
</svg>
