<?xml version="1.0" encoding="UTF-8"?>
<svg width="375px" height="101px" viewBox="0 0 375 101" version="1.1" xmlns="http://www.w3.org/2000/svg" xmlns:xlink="http://www.w3.org/1999/xlink">
    <title>icon_64*64备份 2</title>
    <defs>
        <path d="M20,0 L355,0 C357.209139,3.05438519e-14 359,1.790861 359,4 L359,45.45 L359,45.45 C355.666667,45.45 354,46.965 354,49.995 C354,53.025 355.666667,54.54 359,54.54 L359,97 C359,99.209139 357.209139,101 355,101 L20,101 C17.790861,101 16,99.209139 16,97 L16,55.55 L16,55.55 C19.3333333,55.55 21,53.8666667 21,50.5 C21,47.1333333 19.3333333,45.45 16,45.45 L16,4 C16,1.790861 17.790861,-3.82769592e-17 20,0 Z" id="path-1"></path>
        <filter x="-8.8%" y="-30.0%" width="117.6%" height="159.9%" filterUnits="objectBoundingBox" id="filter-2">
            <feMorphology radius="0.25" operator="dilate" in="SourceAlpha" result="shadowSpreadOuter1"></feMorphology>
            <feOffset dx="0" dy="0" in="shadowSpreadOuter1" result="shadowOffsetOuter1"></feOffset>
            <feGaussianBlur stdDeviation="10" in="shadowOffsetOuter1" result="shadowBlurOuter1"></feGaussianBlur>
            <feComposite in="shadowBlurOuter1" in2="SourceAlpha" operator="out" result="shadowBlurOuter1"></feComposite>
            <feColorMatrix values="0 0 0 0 0.650980392   0 0 0 0 0.650980392   0 0 0 0 0.650980392  0 0 0 0.3 0" type="matrix" in="shadowBlurOuter1"></feColorMatrix>
        </filter>
    </defs>
    <g id="icon" stroke="none" stroke-width="1" fill="none" fill-rule="evenodd">
        <g id="64*64备份">
            <g id="Table-Row-/-Light-/-Base-(Background)备份" stroke-dasharray="0,0">
                <use fill="black" fill-opacity="1" filter="url(#filter-2)" xlink:href="#path-1"></use>
                <use stroke="#E5E5E5" stroke-width="0.5" fill="#FFFFFF" fill-rule="evenodd" xlink:href="#path-1"></use>
            </g>
            <line x1="32.5" y1="74.5" x2="343.5" y2="74.5" id="直线-2备份" stroke="#EAEAEA" stroke-width="0.5" stroke-linecap="square"></line>
        </g>
    </g>
</svg>