<svg width="25" height="24" viewBox="0 0 25 24" fill="none" xmlns="http://www.w3.org/2000/svg">
<ellipse cx="13.0182" cy="11.8036" rx="11.5227" ry="4.13204" transform="rotate(-15 13.0182 11.8036)" fill="white"/>
<circle cx="13" cy="12" r="8" fill="#6469DB" stroke="#424477" stroke-width="1.5"/>
<path d="M6.02117 15.5147C5.43888 15.8584 5.60937 16.6849 6.28526 16.7036C7.04947 16.7247 7.8741 16.6978 8.74338 16.6226C10.4231 16.4773 12.2258 16.1554 14.0159 15.681C15.806 15.2066 17.537 14.5921 19.0786 13.8837C19.8903 13.5107 20.6384 13.1168 21.3084 12.7106C21.8797 12.3643 21.6238 11.5681 20.9558 11.5562V11.5562C20.7868 11.5531 20.6228 11.6108 20.4886 11.7136C19.751 12.2786 18.8066 12.8296 17.7137 13.3318C16.5165 13.882 15.1723 14.3592 13.7821 14.7276C12.3919 15.096 10.992 15.346 9.68757 15.4588C8.50058 15.5615 7.42081 15.5482 6.51483 15.4203C6.34415 15.3962 6.16961 15.4271 6.02117 15.5147V15.5147Z" fill="#424477"/>
<path d="M11.541 7.86777C11.4275 7.54604 11.0723 7.37395 10.767 7.52633C10.2426 7.7881 9.76676 8.14079 9.36242 8.56955C8.95807 8.99831 8.63385 9.49395 8.40324 10.0328C8.269 10.3465 8.4616 10.691 8.78942 10.7855V10.7855C9.11725 10.8801 9.4552 10.6878 9.60204 10.3798C9.7699 10.0278 9.992 9.70282 10.2613 9.41725C10.5306 9.13169 10.842 8.89094 11.1836 8.70275C11.4825 8.53812 11.6546 8.18949 11.541 7.86777V7.86777Z" fill="white"/>
<path d="M13.8899 7.71033C13.9593 7.37559 13.744 7.04386 13.4033 7.01629C13.2225 7.00166 13.041 6.99688 12.8597 7.00197C12.5179 7.01156 12.2855 7.33149 12.3372 7.66942V7.66942C12.3889 8.00735 12.7058 8.23397 13.0477 8.2383C13.0819 8.23873 13.1162 8.23963 13.1505 8.24101C13.492 8.25468 13.8204 8.04506 13.8899 7.71033V7.71033Z" fill="white"/>
<path d="M4.80668 10.4767C4.66592 10.4541 4.52132 10.4817 4.40005 10.5567C2.73277 11.5871 1.6096 12.6679 1.1788 13.659C0.731947 14.6871 1.05221 15.5677 2.09513 16.1787C3.13805 16.7896 4.85187 17.1005 6.99862 17.0682C9.14536 17.0359 11.6185 16.662 14.0747 15.9984C16.5308 15.3349 18.8481 14.4145 20.7048 13.3653C22.5614 12.316 23.8653 11.1898 24.4354 10.1431C25.0055 9.09639 24.8135 8.1811 23.886 7.52432C22.9915 6.89088 21.4558 6.52821 19.4801 6.48186C19.3381 6.47853 19.1999 6.52779 19.0905 6.61845V6.61845C18.6606 6.97468 18.9087 7.70069 19.4603 7.78726C20.2998 7.91903 20.9693 8.15116 21.4248 8.47368C22.145 8.98373 22.2941 9.69453 21.8514 10.5074C21.4087 11.3202 20.3961 12.1948 18.9543 13.0097C17.5124 13.8245 15.7129 14.5392 13.8054 15.0545C11.898 15.5699 9.97741 15.8602 8.31028 15.8853C6.64315 15.9104 5.31223 15.6689 4.50232 15.1945C3.69241 14.7201 3.44369 14.0362 3.79071 13.2378C4.00725 12.7396 4.44906 12.2122 5.08492 11.6852C5.51855 11.3258 5.36276 10.5662 4.80668 10.4767V10.4767Z" fill="#424477"/>
</svg>
