<svg width="24" height="24" viewBox="0 0 24 24" fill="none" xmlns="http://www.w3.org/2000/svg">
<path d="M2.59153 18.5356C2.82113 14.8619 5.86752 12 9.5483 12H14.4517C18.1325 12 21.1789 14.8619 21.4085 18.5356L21.4338 18.9415C21.4765 19.6247 21.2744 20.3008 20.8637 20.8484V20.8484C20.32 21.5734 19.4667 22 18.5605 22H5.43945C4.5333 22 3.68002 21.5734 3.13633 20.8484V20.8484C2.7256 20.3008 2.52345 19.6247 2.56616 18.9415L2.59153 18.5356Z" fill="#6469DB" stroke="#424477" stroke-width="2"/>
<circle cx="12" cy="8" r="5" fill="#6469DB" stroke="#424477" stroke-width="2"/>
<path d="M14.461 8.13091C14.7563 8.14662 15.0134 7.91831 14.9765 7.62484C14.9302 7.25777 14.8162 6.90086 14.6387 6.57273C14.4612 6.2446 14.2249 5.95387 13.943 5.71425C13.7177 5.52267 13.3858 5.6129 13.2373 5.86871V5.86871C13.0888 6.12451 13.1833 6.44829 13.3886 6.66123C13.5093 6.78642 13.6131 6.92794 13.6966 7.08233C13.7801 7.23673 13.8417 7.40104 13.8804 7.57056C13.9463 7.85893 14.1656 8.1152 14.461 8.13091V8.13091Z" fill="white"/>
<path d="M12.7269 5.64103C12.8133 5.36046 12.6556 5.05783 12.3642 5.02219C12.2842 5.0124 12.2038 5.00585 12.1233 5.00253C11.8299 4.99047 11.6253 5.26354 11.6651 5.55441L11.6801 5.66373C11.7116 5.89423 11.9256 6.05067 12.1575 6.06959V6.06959C12.3894 6.0885 12.6259 5.96881 12.6944 5.74648L12.7269 5.64103Z" fill="white"/>
</svg>
